<?xml version="1.0" encoding="UTF-8" standalone="no"?>
<svg
   viewBox="0 0 24 24"
   version="1.1"
   id="svg4"
   sodipodi:docname="share-variant-outline2.svg"
   inkscape:version="1.1.2 (0a00cf5339, 2022-02-04)"
   xmlns:inkscape="http://www.inkscape.org/namespaces/inkscape"
   xmlns:sodipodi="http://sodipodi.sourceforge.net/DTD/sodipodi-0.dtd"
   xmlns="http://www.w3.org/2000/svg"
   xmlns:svg="http://www.w3.org/2000/svg">
  <defs
     id="defs8" />
  <sodipodi:namedview
     id="namedview6"
     pagecolor="#ffffff"
     bordercolor="#666666"
     borderopacity="1.0"
     inkscape:pageshadow="2"
     inkscape:pageopacity="0.0"
     inkscape:pagecheckerboard="0"
     showgrid="false"
     inkscape:zoom="31.291667"
     inkscape:rotation="-90"
     inkscape:cx="11.984021"
     inkscape:cy="12.015979"
     inkscape:window-width="1920"
     inkscape:window-height="1050"
     inkscape:window-x="0"
     inkscape:window-y="0"
     inkscape:window-maximized="1"
     inkscape:current-layer="svg4" />
  <path
     d="m 16.125,5.955 c 0,0.76 0.3,1.44 0.77,1.96 l -4.15,7.13 c -0.23,-0.05 -0.46,-0.09 -0.7,-0.09 -0.24,0 -0.47,0.04 -0.7,0.09 l -4.11,-7.05 c 0.5,-0.54 0.81,-1.25 0.81,-2.04 0,-1.66 -1.34,-3 -3,-3 -1.66,0 -3,1.34 -3,3 0,1.66 1.34,3 3,3 0.24,0 0.47,-0.04 0.7,-0.09 l 4.11,7.05 c -0.5,0.54 -0.81,1.25 -0.81,2.04 0,1.66 1.34,3 3,3 1.66,0 3,-1.34 3,-3 0,-0.79 -0.31,-1.5 -0.81,-2.04 l 4.15,-7.12 c 0.21,0.05 0.43,0.08 0.66,0.08 1.61,0 2.91,-1.31 2.91,-2.92 0,-1.61 -1.3,-2.92 -2.91,-2.92 -1.61,0 -2.92,1.31 -2.92,2.92 m -12.08,0 c 0,-0.55 0.45,-1 1,-1 0.55,0 1,0.45 1,1 0,0.55 -0.45,1 -1,1 -0.55,0 -1,-0.45 -1,-1 m 9,12 c 0,0.55 -0.45,1 -1,1 -0.55,0 -1,-0.45 -1,-1 0,-0.55 0.45,-1 1,-1 0.55,0 1,0.45 1,1 m 7,-12 c 0,0.55 -0.45,1 -1,1 -0.55,0 -1,-0.45 -1,-1 0,-0.55 0.45,-1 1,-1 0.55,0 1,0.45 1,1 z"
     id="path2" />
</svg>
